<svg xmlns="http://www.w3.org/2000/svg" width="1000" height="320" role="img" aria-labelledby="title desc">
  <title id="title">Code Frequency</title>
  <desc id="desc">Additions and deletions per week (last 52 weeks)</desc>
  <defs>
    <style>
      .bg { fill: #ffffff; }
      .title { font: 600 24px -apple-system, BlinkMacSystemFont, Segoe UI, Helvetica, Arial, sans-serif; fill: #24292f; }
      .subtitle { font: 400 14px -apple-system, BlinkMacSystemFont, Segoe UI, Helvetica, Arial, sans-serif; fill: #57606a; }
      .axis { stroke: #d0d7de; stroke-width: 1; }
      .label { font: 400 12px -apple-system, BlinkMacSystemFont, Segoe UI, Helvetica, Arial, sans-serif; fill: #57606a; }
      .value { font: 500 11px -apple-system, BlinkMacSystemFont, Segoe UI, Helvetica, Arial, sans-serif; fill: #57606a; }
    </style>
  </defs>
  <rect class="bg" x="0" y="0" width="1000" height="320" rx="8"/>
  <text class="title" x="24" y="42">Code Frequency</text>
  <text class="subtitle" x="24" y="64">Additions and deletions per week (last 52 weeks)</text>
  <line class="axis" x1="24" y1="184.0" x2="976" y2="184.0"/>
  <line class="axis" x1="24" y1="86" x2="24" y2="282"/>
  <rect x="24.00" y="86.00" width="57.62" height="98.00" fill="#2da44e"><title>29 Mar 2026: +610 additions, -21 deletions</title></rect>
  <rect x="24.00" y="184.00" width="57.62" height="3.37" fill="#cf222e"><title>29 Mar 2026: +610 additions, -21 deletions</title></rect>
  <rect x="143.25" y="174.36" width="57.62" height="9.64" fill="#2da44e"><title>12 Apr 2026: +60 additions, -60 deletions</title></rect>
  <rect x="143.25" y="184.00" width="57.62" height="9.64" fill="#cf222e"><title>12 Apr 2026: +60 additions, -60 deletions</title></rect>
  <rect x="262.50" y="174.36" width="57.62" height="9.64" fill="#2da44e"><title>26 Apr 2026: +60 additions, -58 deletions</title></rect>
  <rect x="262.50" y="184.00" width="57.62" height="9.32" fill="#cf222e"><title>26 Apr 2026: +60 additions, -58 deletions</title></rect>
  <rect x="381.75" y="172.43" width="57.62" height="11.57" fill="#2da44e"><title>10 May 2026: +72 additions, -24 deletions</title></rect>
  <rect x="381.75" y="184.00" width="57.62" height="3.86" fill="#cf222e"><title>10 May 2026: +72 additions, -24 deletions</title></rect>
  <rect x="441.38" y="183.04" width="57.62" height="0.96" fill="#2da44e"><title>17 May 2026: +6 additions, -78 deletions</title></rect>
  <rect x="441.38" y="184.00" width="57.62" height="12.53" fill="#cf222e"><title>17 May 2026: +6 additions, -78 deletions</title></rect>
  <rect x="620.25" y="174.04" width="57.62" height="9.96" fill="#2da44e"><title>07 Jun 2026: +62 additions, -3 deletions</title></rect>
  <rect x="620.25" y="184.00" width="57.62" height="0.48" fill="#cf222e"><title>07 Jun 2026: +62 additions, -3 deletions</title></rect>
  <rect x="679.88" y="175.65" width="57.62" height="8.35" fill="#2da44e"><title>14 Jun 2026: +52 additions, -52 deletions</title></rect>
  <rect x="679.88" y="184.00" width="57.62" height="8.35" fill="#cf222e"><title>14 Jun 2026: +52 additions, -52 deletions</title></rect>
  <rect x="739.50" y="175.65" width="57.62" height="8.35" fill="#2da44e"><title>21 Jun 2026: +52 additions, -52 deletions</title></rect>
  <rect x="739.50" y="184.00" width="57.62" height="8.35" fill="#cf222e"><title>21 Jun 2026: +52 additions, -52 deletions</title></rect>
  <rect x="799.12" y="175.65" width="57.62" height="8.35" fill="#2da44e"><title>28 Jun 2026: +52 additions, -52 deletions</title></rect>
  <rect x="799.12" y="184.00" width="57.62" height="8.35" fill="#cf222e"><title>28 Jun 2026: +52 additions, -52 deletions</title></rect>
  <rect x="858.75" y="175.65" width="57.62" height="8.35" fill="#2da44e"><title>05 Jul 2026: +52 additions, -52 deletions</title></rect>
  <rect x="858.75" y="184.00" width="57.62" height="8.35" fill="#cf222e"><title>05 Jul 2026: +52 additions, -52 deletions</title></rect>
  <rect x="820" y="34" width="12" height="12" fill="#2da44e"/><text class="label" x="838" y="44">Additions</text>
  <rect x="910" y="34" width="12" height="12" fill="#cf222e"/><text class="label" x="928" y="44">Deletions</text>
  <text class="label" x="24.00" y="304">52w</text>
  <text class="label" x="799.12" y="304">39w</text>
  <text class="label" x="918.38" y="304">26w</text>
  <text class="label" x="918.38" y="304">13w</text>
  <text class="label" x="918.38" y="304">Now</text>
  <text class="value" x="980" y="96" text-anchor="end">max +/- 610</text>
</svg>
